<svg xmlns="http://www.w3.org/2000/svg" width="31" height="31" viewBox="0 0 31 31" fill="none">
                    <g clip-path="url(#clip0_1_396)">
                    <path d="M15.8894 0.603333C7.61873 0.603333 0.889648 7.33242 0.889648 15.6031C0.889648 23.8737 7.61873 30.6028 15.8894 30.6028C24.16 30.6028 30.8891 23.8737 30.8891 15.6031C30.8891 7.33242 24.16 0.603333 15.8894 0.603333ZM15.8894 2.47835C23.1269 2.47835 29.0144 8.36589 29.0144 15.6034C29.0144 18.6185 27.982 21.3908 26.2664 23.6095C19.686 20.4952 12.0925 20.4952 5.51253 23.6095C3.79695 21.391 2.76456 18.6186 2.76456 15.6034C2.76456 8.36589 8.6521 2.47835 15.8896 2.47835H15.8894ZM6.82781 25.0748C12.6125 22.5127 19.1668 22.5127 24.9515 25.0748C22.5932 27.332 19.4042 28.7282 15.8899 28.7282C12.3757 28.7282 9.18642 27.3319 6.82836 25.0748H6.82781Z" fill="black"/>
                    <path d="M15.8894 19.3536C18.9912 19.3536 21.5146 16.8304 21.5146 13.7284C21.5146 10.6264 18.9913 8.10321 15.8894 8.10321C12.7874 8.10321 10.2642 10.6264 10.2642 13.7284C10.2642 16.8304 12.7874 19.3536 15.8894 19.3536ZM15.8894 9.97845C17.9576 9.97845 19.6394 11.6603 19.6394 13.7284C19.6394 15.7966 17.9575 17.4784 15.8894 17.4784C13.8212 17.4784 12.1394 15.7966 12.1394 13.7284C12.1394 11.6603 13.8212 9.97845 15.8894 9.97845Z" fill="black"/>
                    </g>
                    <defs>
                    <clipPath id="clip0_1_396">
                    <rect width="30" height="30" fill="white" transform="translate(0.889648 0.603333)"/>
                    </clipPath>
                    </defs>
                    </svg>