<svg xmlns="http://www.w3.org/2000/svg" width="21" height="21" viewBox="0 0 21 21" fill="none">
                    <g clip-path="url(#clip0_1_384)">
                    <path d="M9.08712 0.603333C4.23087 0.603333 0.279694 4.5545 0.279694 9.41075C0.279694 14.2674 4.23087 18.2182 9.08712 18.2182C13.9438 18.2182 17.8945 14.2674 17.8945 9.41075C17.8945 4.5545 13.9438 0.603333 9.08712 0.603333ZM9.08712 16.5924C5.12735 16.5924 1.90547 13.3707 1.90547 9.41075C1.90547 5.45079 5.12715 2.22911 9.08712 2.22911C13.0471 2.22911 16.2688 5.45079 16.2688 9.41075C16.2688 13.3707 13.0471 16.5924 9.08712 16.5924Z" fill="#808080"/>
                    <path d="M20.0414 19.2155L15.3801 14.5541C15.0625 14.2365 14.5481 14.2365 14.2305 14.5541C13.9128 14.8715 13.9128 15.3864 14.2305 15.7037L18.8918 20.3651C19.0506 20.5239 19.2585 20.6033 19.4666 20.6033C19.6744 20.6033 19.8826 20.5239 20.0414 20.3651C20.359 20.0477 20.359 19.5328 20.0414 19.2155Z" fill="#808080"/>
                    </g>
                    <defs>
                    <clipPath id="clip0_1_384">
                    <rect width="20" height="20" fill="white" transform="translate(0.279694 0.603333)"/>
                    </clipPath>
                    </defs>
                    </svg>