<svg xmlns="http://www.w3.org/2000/svg" width="31" height="31" viewBox="0 0 31 31" fill="none">
                    <g clip-path="url(#clip0_1_388)">
                    <path d="M0.96973 21.0537C0.96973 21.7678 1.77879 22.1832 2.35905 21.7692L7.19133 18.322C7.59662 18.0329 8.07405 17.8801 8.57198 17.8801H19.1997C21.0705 17.8801 22.5924 16.3581 22.5924 14.4874V3.33527C22.5924 2.84988 22.1989 2.45636 21.7135 2.45636H4.36213C2.49141 2.45636 0.969437 3.97827 0.969437 5.84906L0.96973 21.0537ZM2.72754 5.84923C2.72754 4.94771 3.46096 4.21435 4.36242 4.21435H20.8349V14.4876C20.8349 15.3891 20.1015 16.1225 19.2 16.1225H8.57227C7.70625 16.1225 6.87586 16.3883 6.17086 16.8912L2.72789 19.3473L2.72754 5.84923Z" fill="black"/>
                    <path d="M30.9697 12.6666C30.9697 10.7956 29.4478 9.27344 27.5772 9.27344H25.2293C24.7439 9.27344 24.3504 9.66695 24.3504 10.1523C24.3504 10.6377 24.7439 11.0313 25.2293 11.0313H27.5772C28.4786 11.0313 29.2119 11.7649 29.2119 12.6666V26.1643L25.769 23.7083C25.0641 23.2054 24.2337 22.9396 23.3678 22.9396H12.7395C11.838 22.9396 11.1047 22.206 11.1047 21.3043V20.5168C11.1047 20.0314 10.7112 19.6379 10.2258 19.6379C9.74039 19.6379 9.34688 20.0314 9.34688 20.5168V21.3043C9.34688 23.1753 10.8688 24.6974 12.7395 24.6974H23.3678C23.8656 24.6974 24.343 24.8502 24.7482 25.1393L29.5805 28.5863C30.1578 28.9983 30.9698 28.5872 30.9698 27.8709V12.6664L30.9697 12.6666Z" fill="black"/>
                    <path d="M7.28964 9.00214H17.4439C17.9293 9.00214 18.3228 8.60862 18.3228 8.12323C18.3228 7.63784 17.9293 7.24432 17.4439 7.24432H7.28964C6.80425 7.24432 6.41074 7.63784 6.41074 8.12323C6.41074 8.60862 6.80425 9.00214 7.28964 9.00214Z" fill="black"/>
                    <path d="M7.28964 13.1037H17.4439C17.9293 13.1037 18.3228 12.7102 18.3228 12.2248C18.3228 11.7394 17.9293 11.3459 17.4439 11.3459H7.28964C6.80425 11.3459 6.41074 11.7394 6.41074 12.2248C6.41074 12.7102 6.80425 13.1037 7.28964 13.1037Z" fill="black"/>
                    </g>
                    <defs>
                    <clipPath id="clip0_1_388">
                    <rect width="30" height="30" fill="white" transform="translate(0.969727 0.603333)"/>
                    </clipPath>
                    </defs>
                    </svg>