<svg xmlns="http://www.w3.org/2000/svg" width="39" height="39" viewBox="0 0 39 39" fill="none">
  <g clip-path="url(#clip0_1_420)">
    <path d="M37.018 6.09729H2.68068C1.67339 6.09729 0.849335 6.92134 0.849335 7.92856V31.2778C0.849335 32.285 1.67339 33.1091 2.68068 33.1091H37.018C38.0252 33.1091 38.8493 32.2851 38.8493 31.2778V7.92856C38.8493 6.92134 38.0253 6.09729 37.018 6.09729ZM2.22275 7.92856C2.22275 7.68045 2.43242 7.47078 2.68053 7.47078H37.0178C37.266 7.47078 37.4756 7.68045 37.4756 7.92856V10.2177H2.22246V7.92856H2.22275ZM37.4759 31.2778C37.4758 31.5259 37.2662 31.7356 37.018 31.7356H2.68068C2.43257 31.7356 2.2229 31.5259 2.2229 31.2778V17.0849H37.4761V31.2778H37.4759ZM37.4759 15.7111H2.22275V11.5907H37.4759V15.7111Z" fill="black"/>
    <path d="M31.7529 21.6636C30.6802 21.6636 29.7096 22.0976 29.0059 22.799C28.3018 22.0976 27.3311 21.6636 26.2589 21.6636C24.1094 21.6636 22.3674 23.4061 22.3674 25.5551C22.3674 27.7037 24.1095 29.4466 26.2589 29.4466C27.3312 29.4466 28.3018 29.0126 29.0059 28.3111C29.7097 29.0126 30.6802 29.4466 31.7529 29.4466C33.9015 29.4466 35.6444 27.7036 35.6444 25.5551C35.6446 23.4061 33.9015 21.6636 31.7529 21.6636ZM31.7529 28.0733C31.0822 28.0733 30.4509 27.8123 29.9756 27.3384C29.7073 27.0714 29.3566 26.9378 29.0059 26.9378C28.6552 26.9378 28.3045 27.0714 28.0366 27.3384C27.561 27.8123 26.9291 28.0733 26.2589 28.0733C24.8703 28.0733 23.7408 26.9438 23.7408 25.5552C23.7408 24.1665 24.8702 23.0371 26.2589 23.0371C26.9291 23.0371 27.5609 23.298 28.0366 23.7719C28.3045 24.0392 28.6556 24.1725 29.0059 24.1725C29.3571 24.1725 29.7074 24.0389 29.9756 23.7719C30.4508 23.298 31.0822 23.0371 31.7529 23.0371C33.1415 23.0371 34.271 24.1665 34.271 25.5552C34.271 26.9438 33.1415 28.0733 31.7529 28.0733Z" fill="black"/>
    <path d="M15.9584 23.0366H4.97033C4.59122 23.0366 4.28358 23.3443 4.28358 23.7234C4.28358 24.1024 4.5913 24.4101 4.97033 24.4101H15.9584C16.3375 24.4101 16.6452 24.1024 16.6452 23.7234C16.6452 23.3442 16.3375 23.0366 15.9584 23.0366Z" fill="black"/>
    <path d="M10.0068 26.2415H4.96981C4.5907 26.2415 4.28307 26.5492 4.28307 26.9282C4.28307 27.3072 4.59078 27.6149 4.96981 27.6149H10.0069C10.386 27.6149 10.6936 27.3072 10.6936 26.9282C10.6936 26.5492 10.3859 26.2415 10.0068 26.2415Z" fill="black"/>
  </g>
  <defs>
    <clipPath id="clip0_1_420">
      <rect width="38" height="38" fill="white" transform="translate(0.849701 0.603271)"/>
    </clipPath>
  </defs>
</svg>