<svg xmlns="http://www.w3.org/2000/svg" width="19" height="19" viewBox="0 0 19 19" fill="none">
  <g clip-path="url(#clip0_1_912)">
    <path d="M16.7575 2.93311H1.72223C0.904813 2.93311 0.239868 3.59805 0.239868 4.41547V14.7918C0.239868 15.609 0.904813 16.2742 1.72223 16.2742H16.7575C17.5747 16.2742 18.2399 15.609 18.2399 14.7918V4.41547C18.2398 3.59805 17.5747 2.93311 16.7575 2.93311H16.7575ZM16.9693 14.792C16.9693 14.9068 16.8723 15.0038 16.7575 15.0038H1.72227C1.60748 15.0038 1.51049 14.9068 1.51049 14.792V6.64209L8.81174 10.9347C9.00826 11.0503 9.25179 11.0518 9.44958 10.9385L16.9691 6.63042V14.7919L16.9693 14.792ZM16.9693 5.16623L9.13823 9.65287L1.51038 5.16834V4.41571C1.51038 4.30093 1.60738 4.20397 1.72216 4.20397H16.7574C16.8722 4.20397 16.9692 4.30096 16.9692 4.41571V5.16644L16.9693 5.16623Z" fill="#201F1F"/>
  </g>
  <defs>
    <clipPath id="clip0_1_912">
      <rect width="18" height="18" fill="white" transform="translate(0.239685 0.603516)"/>
    </clipPath>
  </defs>
</svg>