<svg xmlns="http://www.w3.org/2000/svg" width="17" height="17" viewBox="0 0 17 17" fill="none">
  <g clip-path="url(#clip0_1_926)">
    <path d="M11.902 0.603516H5.19743C2.63465 0.603516 0.549683 2.68848 0.549683 5.25127V11.9558C0.549683 14.5185 2.63465 16.6035 5.19743 16.6035H11.9019C14.4647 16.6035 16.5497 14.5185 16.5497 11.9558V5.25127C16.5497 2.68848 14.4647 0.603516 11.902 0.603516ZM15.2997 11.9558C15.2997 13.8293 13.7755 15.3535 11.902 15.3535H5.19743C3.3239 15.3535 1.79968 13.8293 1.79968 11.9558V5.25127C1.79968 3.37773 3.3239 1.85352 5.19743 1.85352H11.9019C13.7755 1.85352 15.2997 3.37773 15.2997 5.25127V11.9558Z" fill="#424242"/>
    <path d="M8.54968 4.29102C6.17175 4.29102 4.23718 6.22558 4.23718 8.60352C4.23718 10.9815 6.17175 12.916 8.54968 12.916C10.9276 12.916 12.8622 10.9815 12.8622 8.60352C12.8622 6.22558 10.9276 4.29102 8.54968 4.29102ZM8.54968 11.666C6.86103 11.666 5.48718 10.2922 5.48718 8.60352C5.48718 6.91486 6.86103 5.54102 8.54968 5.54102C10.2383 5.54102 11.6122 6.91486 11.6122 8.60352C11.6122 10.2922 10.2383 11.666 8.54968 11.666Z" fill="#424242"/>
    <path d="M12.9247 4.85352C13.2699 4.85352 13.5497 4.57369 13.5497 4.22852C13.5497 3.88334 13.2699 3.60352 12.9247 3.60352C12.5795 3.60352 12.2997 3.88334 12.2997 4.22852C12.2997 4.57369 12.5795 4.85352 12.9247 4.85352Z" fill="#424242"/>
  </g>
  <defs>
    <clipPath id="clip0_1_926">
      <rect width="16" height="16" fill="white" transform="translate(0.549683 0.603516)"/>
    </clipPath>
  </defs>
</svg>