<svg xmlns="http://www.w3.org/2000/svg" width="21" height="21" viewBox="0 0 21 21" fill="none">
                    <g clip-path="url(#clip0_1_327)">
                    <path d="M10.1569 0.645489C9.67748 0.738719 9.3645 0.865245 8.96716 1.12718C8.78292 1.24704 8.51433 1.50897 6.74518 3.2759C5.63531 4.38134 4.72964 5.29366 4.72964 5.30254C4.72964 5.31364 4.93386 5.32029 5.18247 5.32029C5.82176 5.32029 6.17915 5.39355 6.61644 5.6133C7.02931 5.82196 7.04707 5.8375 8.8029 7.58667C9.71966 8.49899 10.5032 9.26258 10.5454 9.28478C10.6542 9.34249 10.9472 9.34249 11.0559 9.28478C11.0981 9.26258 11.8728 8.50786 12.7763 7.60886C14.2013 6.18822 14.4455 5.95293 14.6275 5.83306C15.1625 5.48012 15.5843 5.34915 16.2591 5.32695L16.6542 5.31364L14.683 3.34027C13.5976 2.25481 12.6409 1.31364 12.5543 1.24704C12.2058 0.978452 11.8351 0.798652 11.4022 0.687664C11.2069 0.638829 11.1203 0.62995 10.7452 0.623291C10.4433 0.618852 10.2657 0.625511 10.1569 0.645489Z" fill="white"/>
                    <path d="M2.6009 7.41796C1.52432 8.49898 1.3201 8.71429 1.20246 8.89187C0.97604 9.23372 0.860613 9.49565 0.760724 9.89076C0.70523 10.1105 0.70079 10.1594 0.70079 10.6033C0.70079 11.0273 0.70745 11.1028 0.754065 11.2914C0.862833 11.7332 1.05151 12.1283 1.32232 12.479C1.38891 12.5633 1.98603 13.1782 2.64974 13.8419L3.85728 15.0473L4.65418 15.045C5.54874 15.0406 5.6908 15.0273 6.00157 14.923C6.4544 14.7698 6.3989 14.8164 8.27016 12.954C9.95495 11.2759 9.95717 11.2759 10.1459 11.1827C10.5831 10.9696 11.0537 10.974 11.4844 11.1938C11.6309 11.2715 11.7729 11.4046 13.2868 12.9119C14.2768 13.8974 14.9871 14.59 15.0781 14.6521C15.2535 14.7764 15.4932 14.8897 15.7197 14.9562C15.8706 15.0006 15.9461 15.0073 16.6497 15.0206C17.0715 15.0273 17.4311 15.0406 17.4488 15.0495C17.4733 15.0606 17.8195 14.7276 18.7496 13.7953C19.8329 12.7076 20.0371 12.4923 20.1547 12.3147C20.2302 12.1993 20.3168 12.0572 20.3478 11.9995C20.7807 11.1449 20.7807 10.0617 20.3478 9.20708C20.3168 9.14936 20.2302 9.0073 20.1547 8.89187C20.0371 8.71429 19.8329 8.49898 18.7496 7.4113C17.8195 6.479 17.4733 6.14604 17.4488 6.15713C17.4311 6.16601 17.0715 6.17933 16.6497 6.18599C15.9461 6.19931 15.8706 6.20597 15.7197 6.25036C15.4932 6.31696 15.2535 6.43016 15.0781 6.55447C14.9894 6.61662 14.2702 7.31585 13.2757 8.30586C11.4955 10.0772 11.5487 10.0284 11.2113 10.1327C10.8229 10.2504 10.3945 10.1927 10.046 9.97733C9.98159 9.93738 9.23131 9.20708 8.25906 8.24148C6.40112 6.39243 6.4544 6.43904 6.00157 6.28366C5.69968 6.18155 5.51544 6.16379 4.6342 6.15935L3.86172 6.15269L2.6009 7.41796Z" fill="white"/>
                    <path d="M10.6009 11.9063C10.4966 11.9374 10.3767 12.0506 8.814 13.6089C7.04707 15.3691 7.02931 15.3847 6.61644 15.5933C6.18137 15.8131 5.81954 15.8863 5.18026 15.8863C4.93164 15.8863 4.72964 15.893 4.72964 15.9041C4.72964 15.913 5.63531 16.8253 6.74518 17.9307C8.51433 19.6977 8.78292 19.9596 8.96716 20.0795C9.309 20.3059 9.57093 20.4213 9.96605 20.5212C10.1858 20.5767 10.2346 20.5811 10.6786 20.5811C11.1026 20.5811 11.178 20.5745 11.3667 20.5278C11.8084 20.4191 12.2036 20.2304 12.5543 19.9596C12.6409 19.893 13.5976 18.9518 14.683 17.8664L16.6542 15.893L16.2591 15.8797C15.5843 15.8575 15.1625 15.7265 14.6275 15.3736C14.4455 15.2537 14.1991 15.0162 12.7652 13.5867C11.1625 11.9907 11.107 11.9374 10.9916 11.9041C10.8429 11.8619 10.7474 11.8619 10.6009 11.9063Z" fill="white"/>
                    </g>
                    <defs>
                    <clipPath id="clip0_1_327">
                    <rect width="20" height="20" fill="white" transform="translate(0.689697 0.603333)"/>
                    </clipPath>
                    </defs>
                </svg>