<svg xmlns="http://www.w3.org/2000/svg" width="39" height="39" viewBox="0 0 39 39" fill="none">
<g clip-path="url(#clip0_1_413)">
<path d="M35.2399 9.50952H30.7095C31.41 8.57852 31.8258 7.42182 31.8258 6.16968C31.8258 3.10036 29.3287 0.603271 26.2594 0.603271C24.4105 0.603271 23.0472 1.26567 21.9689 2.68785C21.0668 3.87773 20.4071 5.53904 19.5797 7.6381C18.7523 5.53897 18.0927 3.87773 17.1905 2.68785C16.1122 1.26567 14.7489 0.603271 12.9 0.603271C9.83071 0.603271 7.33362 3.10036 7.33362 6.16968C7.33362 7.42182 7.74947 8.57852 8.44994 9.50952H3.91956C2.07797 9.50952 0.579712 11.0078 0.579712 12.8494V15.0759C0.579712 16.5273 1.51049 17.7647 2.80627 18.2243V35.2634C2.80627 37.105 4.30453 38.6033 6.14612 38.6033H33.0133C34.8549 38.6033 36.3531 37.105 36.3531 35.2634V18.2243C37.6489 17.7647 38.5797 16.5273 38.5797 15.0759V12.8494C38.5797 11.0078 37.0815 9.50952 35.2399 9.50952ZM21.623 8.52538C23.3284 4.19858 23.9768 2.82983 26.2591 2.82983C28.1007 2.82983 29.5989 4.32809 29.5989 6.16968C29.5989 8.01127 28.1007 9.50952 26.2591 9.50952H21.2335C21.3699 9.167 21.5 8.83725 21.623 8.52538ZM12.9 2.82983C15.1823 2.82983 15.8307 4.19858 17.5362 8.52538C17.6591 8.83725 17.7892 9.167 17.9256 9.50952H12.9C11.0584 9.50952 9.56018 8.01127 9.56018 6.16968C9.56018 4.32809 11.0584 2.82983 12.9 2.82983ZM15.1266 36.3767H6.14612C5.53225 36.3767 5.03284 35.8773 5.03284 35.2634V18.4158H15.1266V36.3767ZM15.1266 16.1892H3.91956C3.30569 16.1892 2.80627 15.6898 2.80627 15.0759V12.8494C2.80627 12.2355 3.30569 11.7361 3.91956 11.7361H15.1266V16.1892ZM21.8063 36.3767H17.3531V11.7361H21.8063V36.3767ZM34.1266 35.2634C34.1266 35.8773 33.6272 36.3767 33.0133 36.3767H24.0328V18.4158H34.1266V35.2634ZM36.3531 15.0759C36.3531 15.6898 35.8537 16.1892 35.2399 16.1892H24.0328V11.7361H35.2399C35.8537 11.7361 36.3531 12.2355 36.3531 12.8494V15.0759Z" fill="black"/>
</g>
<defs>
<clipPath id="clip0_1_413">
<rect width="38" height="38" fill="white" transform="translate(0.579712 0.603271)"/>
</clipPath>
</defs>
</svg>