<svg xmlns="http://www.w3.org/2000/svg" width="30" height="30" viewBox="0 0 30 30" fill="none">
  <g clip-path="url(#clip0_1_346)">
    <path d="M27.9915 15.4787C27.8748 15.24 27.8748 14.9662 27.9915 14.7275L29.0731 12.5149C29.6753 11.2829 29.1981 9.81449 27.9868 9.17179L25.8113 8.01746C25.5766 7.89297 25.4156 7.67139 25.3697 7.40977L24.9442 4.98392C24.7073 3.63328 23.4579 2.72567 22.1004 2.91774L19.6619 3.26268C19.3987 3.29983 19.1384 3.21521 18.9475 3.03051L17.1774 1.31816C16.1918 0.364678 14.6478 0.364621 13.6623 1.31816L11.8922 3.03068C11.7012 3.21544 11.4409 3.29989 11.1777 3.26285L8.73921 2.91791C7.38126 2.72573 6.13234 3.63345 5.89542 4.98409L5.46994 7.40982C5.424 7.6715 5.26309 7.89302 5.02842 8.01757L2.85287 9.1719C1.64156 9.81454 1.16442 11.2831 1.76662 12.515L2.84817 14.7276C2.96485 14.9664 2.96485 15.2402 2.84817 15.4789L1.76657 17.6915C1.16437 18.9234 1.6415 20.3918 2.85281 21.0345L5.02837 22.1889C5.26309 22.3134 5.424 22.5349 5.46994 22.7966L5.89542 25.2224C6.1111 26.452 7.16541 27.3142 8.37711 27.3141C8.49645 27.3141 8.61755 27.3057 8.73927 27.2885L11.1778 26.9436C11.4408 26.9063 11.7012 26.9911 11.8922 27.1758L13.6623 28.8881C14.1552 29.3649 14.7874 29.6032 15.4198 29.6032C16.0521 29.6031 16.6847 29.3648 17.1774 28.8881L18.9475 27.1758C19.1385 26.9911 19.3988 26.9067 19.6619 26.9436L22.1004 27.2885C23.4586 27.4807 24.7073 26.573 24.9442 25.2223L25.3698 22.7966C25.4157 22.5349 25.5766 22.3134 25.8113 22.1889L27.9868 21.0345C29.1981 20.3919 29.6753 18.9234 29.0731 17.6914L27.9915 15.4787ZM27.2029 19.557L25.0273 20.7113C24.3337 21.0794 23.858 21.734 23.7223 22.5075L23.2968 24.9333C23.2167 25.3903 22.7942 25.6972 22.3347 25.6324L19.8962 25.2874C19.1185 25.1773 18.349 25.4276 17.7846 25.9735L16.0144 27.6858C15.681 28.0083 15.1587 28.0083 14.8252 27.6858L13.0551 25.9735C12.5781 25.512 11.9545 25.2619 11.3034 25.2619C11.1841 25.2619 11.0639 25.2703 10.9435 25.2874L8.50495 25.6323C8.04582 25.6972 7.623 25.3902 7.5428 24.9333L7.11726 22.5074C6.98155 21.7339 6.50589 21.0792 5.81221 20.7112L3.63666 19.5569C3.22681 19.3395 3.06539 18.8427 3.26912 18.4259L4.35072 16.2132C4.69555 15.5077 4.69555 14.6985 4.35072 13.993L3.26912 11.7804C3.06539 11.3635 3.22681 10.8668 3.63666 10.6493L5.81221 9.49498C6.50583 9.12687 6.98155 8.47223 7.11721 7.69875L7.54269 5.27296C7.62289 4.81598 8.04531 4.50899 8.50484 4.5739L10.9434 4.91884C11.7208 5.02889 12.4906 4.77871 13.055 4.23276L14.8251 2.52041C15.1585 2.1979 15.6809 2.1979 16.0144 2.52041L17.7844 4.23276C18.3489 4.77877 19.1185 5.02889 19.896 4.91884L22.3346 4.5739C22.7938 4.50893 23.2166 4.81598 23.2967 5.27296L23.7222 7.6988C23.8579 8.47228 24.3336 9.12699 25.0273 9.49498L27.2028 10.6493C27.6127 10.8668 27.7741 11.3635 27.5704 11.7804L26.4888 13.993C26.1439 14.6984 26.1439 15.5077 26.4888 16.2131L27.5704 18.4257C27.7741 18.8427 27.6127 19.3395 27.2029 19.557Z" fill="white"/>
    <path d="M21.5305 8.99287C21.204 8.66628 20.6744 8.66628 20.3478 8.99287L9.30918 20.0315C8.98259 20.3581 8.98259 20.8876 9.30918 21.2142C9.47247 21.3775 9.68652 21.4592 9.90051 21.4592C10.1145 21.4592 10.3286 21.3775 10.4918 21.2142L21.5305 10.1756C21.8572 9.84893 21.8572 9.31951 21.5305 8.99287Z" fill="white"/>
    <path d="M12.0744 7.5769C10.3836 7.5769 9.00797 8.95253 9.00797 10.6434C9.00797 12.3342 10.3836 13.7098 12.0744 13.7098C13.7652 13.7098 15.1409 12.3342 15.1409 10.6434C15.1409 8.95253 13.7652 7.5769 12.0744 7.5769ZM12.0744 12.0372C11.3059 12.0372 10.6806 11.4119 10.6806 10.6433C10.6806 9.87474 11.3059 9.24949 12.0744 9.24949C12.843 9.24949 13.4683 9.87474 13.4683 10.6433C13.4682 11.4119 12.843 12.0372 12.0744 12.0372Z" fill="white"/>
    <path d="M18.7648 16.4972C17.074 16.4972 15.6983 17.8728 15.6983 19.5636C15.6983 21.2545 17.074 22.6301 18.7648 22.6301C20.4556 22.6301 21.8312 21.2545 21.8312 19.5636C21.8312 17.8728 20.4556 16.4972 18.7648 16.4972ZM18.7648 20.9574C17.9962 20.9574 17.3709 20.3322 17.3709 19.5636C17.3709 18.7951 17.9962 18.1698 18.7648 18.1698C19.5333 18.1698 20.1586 18.7951 20.1586 19.5636C20.1586 20.3322 19.5333 20.9574 18.7648 20.9574Z" fill="white"/>
  </g>
  <defs>
    <clipPath id="clip0_1_346">
      <rect width="29" height="29" fill="white" transform="translate(0.919678 0.603333)"/>
    </clipPath>
  </defs>
</svg>