<svg xmlns="http://www.w3.org/2000/svg" width="31" height="31" viewBox="0 0 31 31" fill="none">
                    <g clip-path="url(#clip0_1_402)">
                    <path d="M30.4765 10.884C30.3299 10.74 30.125 10.6717 29.9213 10.699H21.9624V7.18235C21.9624 3.7069 19.1451 0.889526 15.6696 0.889526C12.1942 0.889526 9.37679 3.7069 9.37679 7.18235V10.699H1.41795C1.19583 10.699 0.973776 10.699 0.86268 10.884C0.713465 11.0274 0.644242 11.235 0.677614 11.4393L3.45389 26.6159C3.84174 28.733 5.6698 30.2822 7.82186 30.3175H23.5171C25.6753 30.2645 27.4995 28.703 27.885 26.5789L30.6613 11.4392C30.6947 11.2349 30.6255 11.0273 30.4763 10.8839L30.4765 10.884ZM10.8575 7.18235C10.8575 4.52468 13.012 2.3702 15.6697 2.3702C18.3273 2.3702 20.4818 4.52468 20.4818 7.18235V10.699H10.8572V7.18235H10.8575ZM26.4047 26.3939C26.1553 27.7969 24.9422 28.8234 23.5174 28.8371H7.82215C6.39731 28.8234 5.18417 27.797 4.93485 26.3939L2.30665 12.1796H29.0328L26.4047 26.3939Z" fill="black"/>
                    <path d="M21.2225 19.3976C21.6314 19.3976 21.9628 19.0662 21.9628 18.6573V16.4363C21.9628 16.0274 21.6314 15.6959 21.2225 15.6959C20.8136 15.6959 20.4822 16.0274 20.4822 16.4363V18.6573C20.4821 19.0662 20.8136 19.3976 21.2225 19.3976Z" fill="black"/>
                    <path d="M10.1171 19.3976C10.526 19.3976 10.8574 19.0662 10.8574 18.6573V16.4363C10.8574 16.0274 10.526 15.6959 10.1171 15.6959C9.70822 15.6959 9.37677 16.0274 9.37677 16.4363V18.6573C9.37677 19.0662 9.70822 19.3976 10.1171 19.3976Z" fill="black"/>
                    </g>
                    <defs>
                    <clipPath id="clip0_1_402">
                    <rect width="30" height="30" fill="white" transform="translate(0.669678 0.603333)"/>
                    </clipPath>
                    </defs>
                    </svg> 