<svg xmlns="http://www.w3.org/2000/svg" width="19" height="19" viewBox="0 0 19 19" fill="none">
  <g clip-path="url(#clip0_1_900)">
    <path d="M13.1763 18.6033C12.5953 18.6033 12.0192 18.5006 11.4558 18.2959C8.97394 17.3943 6.67018 15.9259 4.79361 14.0492C2.91705 12.1725 1.44863 9.86892 0.546911 7.38699C0.2572 6.5894 0.171703 5.76607 0.292882 4.9398C0.406397 4.16583 0.706197 3.41446 1.15991 2.76691C1.61562 2.11651 2.22316 1.57555 2.91684 1.20252C3.65656 0.804746 4.46396 0.603027 5.31668 0.603027C5.58189 0.603027 5.8111 0.788328 5.86668 1.04763L6.74955 5.16777C6.78953 5.35434 6.73219 5.54846 6.5973 5.68339L5.0887 7.19195C6.51184 10.0214 8.82109 12.3305 11.6507 13.7539L13.1593 12.2454C13.2942 12.1105 13.4883 12.0532 13.6749 12.0931L17.795 12.976C18.0544 13.0316 18.2396 13.2608 18.2396 13.526C18.2396 14.3787 18.0379 15.1861 17.6401 15.9258C17.2671 16.6195 16.7261 17.2271 16.0757 17.6828C15.4282 18.1365 14.6768 18.4363 13.9028 18.5498C13.6603 18.5854 13.4178 18.6032 13.1762 18.6032L13.1763 18.6033ZM4.86747 1.75287C3.74269 1.87704 2.74437 2.46658 2.08142 3.41278C1.33593 4.47674 1.16208 5.78537 1.60447 7.00314C3.33775 11.7747 7.06823 15.5053 11.8398 17.2385C13.0576 17.6808 14.3662 17.507 15.4302 16.7615C16.3763 16.0986 16.9659 15.1002 17.0901 13.9755L13.7384 13.2572L12.1629 14.8327C11.9952 15.0004 11.7405 15.0449 11.526 14.9441C8.17958 13.372 5.4709 10.6633 3.89878 7.31693C3.79799 7.10238 3.8425 6.84765 4.01015 6.68003L5.58565 5.10453L4.86747 1.75287Z" fill="#201F1F"/>
  </g>
  <defs>
    <clipPath id="clip0_1_900">
      <rect width="18" height="18" fill="white" transform="translate(0.239685 0.603516)"/>
    </clipPath>
  </defs>
</svg>