<svg xmlns="http://www.w3.org/2000/svg" width="19" height="19" viewBox="0 0 19 19" fill="none">
  <g clip-path="url(#clip0_1_907)">
    <path d="M15.565 3.21745C13.8741 1.53284 11.6247 0.6045 9.23055 0.603516C6.84186 0.603516 4.58887 1.53104 2.8866 3.21524C1.18152 4.90232 0.241656 7.1443 0.239441 9.52016V9.52455C0.239716 10.9625 0.617511 12.4131 1.33463 13.7373L0.264015 18.6037L5.18624 17.484C6.43292 18.1123 7.82391 18.4435 9.22675 18.4441H9.23032C11.6186 18.4441 13.8716 17.5164 15.5739 15.8321C17.2805 14.1436 18.2208 11.9044 18.2219 9.52716C18.2226 7.16659 17.279 4.92591 15.5646 3.21766L15.565 3.21745ZM9.23055 17.0391H9.22739C7.96767 17.0386 6.71948 16.7223 5.6179 16.1243L5.38512 15.9979L2.11201 16.7424L2.82297 13.5113L2.68592 13.275C2.00448 12.0998 1.64441 10.8026 1.64441 9.5231C1.64702 5.38169 5.04975 2.00845 9.23008 2.00845C11.2496 2.00927 13.1472 2.79219 14.5731 4.21271C16.0207 5.6552 16.8176 7.54239 16.8169 9.52658C16.8153 13.669 13.4119 17.0391 9.23022 17.0391L9.23055 17.0391Z" fill="#26C281"/>
    <path d="M6.78401 5.59082H6.38987C6.25268 5.59082 6.02994 5.64218 5.84151 5.84721C5.65295 6.05238 5.12161 6.54827 5.12161 7.55683C5.12161 8.56539 5.85866 9.53985 5.96139 9.67679C6.06425 9.81356 7.38413 11.9493 9.47455 12.771C11.2119 13.4538 11.5655 13.318 11.9425 13.2837C12.3196 13.2497 13.1594 12.788 13.3307 12.3094C13.5021 11.8308 13.5021 11.4205 13.4508 11.3348C13.3993 11.2493 13.2621 11.1981 13.0565 11.0957C12.8508 10.9931 11.8428 10.4888 11.6542 10.4203C11.4657 10.352 11.3286 10.3178 11.1914 10.5231C11.0542 10.728 10.6503 11.2021 10.5303 11.3389C10.4104 11.4758 10.2904 11.4929 10.0847 11.3904C9.87894 11.2875 9.22333 11.0672 8.43766 10.369C7.82612 9.82563 7.40178 9.13266 7.28176 8.92749C7.16187 8.72246 7.26899 8.6115 7.37212 8.5092C7.46454 8.41747 7.58937 8.29195 7.69223 8.17234C7.79496 8.05259 7.82421 7.96717 7.89287 7.83039C7.9614 7.69361 7.92707 7.57385 7.8757 7.47141C7.82421 7.36882 7.42954 6.35519 7.24658 5.94981H7.24672C7.09264 5.60841 6.93045 5.59687 6.78392 5.59083L6.78401 5.59082Z" fill="#26C281"/>
  </g>
  <defs>
    <clipPath id="clip0_1_907">
      <rect width="18" height="18" fill="white" transform="translate(0.239685 0.603516)"/>
    </clipPath>
  </defs>
</svg>